PathFileType	4	(X/Y/Z)	C:\Users\WrightLab\Desktop\Jo\P5V31.trc
DataRate	CameraRate	NumFrames	NumMarkers	Units	OrigDataRate	OrigDataStartFrame	OrigNumFrames
100.00	100.00	       16	19	mm	100.00	567	       907
Frame#	Time	Headset_Front			Headset_Back			Headset_Left			Headset_Right			Left_Shoulder			Right_Shoulder			Sternum			C7			Left Elbow			Right Elbow			Left Wrist			Right Wrist			Left ASIS			Right ASIS			S2			Left Knee			Right Knee			Left Ankle			Right Ankle			
		X1	Y1	Z1	X2	Y2	Z2	X3	Y3	Z3	X4	Y4	Z4	X5	Y5	Z5	X6	Y6	Z6	X7	Y7	Z7	X8	Y8	Z8	X9	Y9	Z9	X10	Y10	Z10	X11	Y11	Z11	X12	Y12	Z12	X13	Y13	Z13	X14	Y14	Z14	X15	Y15	Z15	X16	Y16	Z16	X17	Y17	Z17	X18	Y18	Z18	X19	Y19	Z19	

567	5.660	-329.29169	1522.18884	-446.20859	-455.84311	1529.01770	-172.18806				-228.81537	1597.40198	-155.04503	-100.79984	1515.31689	-342.17374	-495.40948	1434.77698	-295.03354	-285.83969	1302.95044	-258.61401				-156.06546	1272.53796	-234.04347	-607.27429	1207.95483	-201.28917	-1.57759	1230.27563	-363.71259	-605.66406	1132.36609	34.14685	-111.11770	935.31818	-269.25070	-396.42316	920.45374	-243.63243	-236.33049	976.55627	-511.36569	-98.80866	498.83313	-278.21420	-431.35229	484.93469	-274.39478	-193.68007	82.81601	-313.94931	-401.57352	203.01772	-564.84790	
568	5.670	-328.80450	1522.87427	-441.67853	-455.12286	1529.69556	-168.28963				-228.36722	1597.12415	-149.80939	-100.37217	1516.08447	-337.64703	-494.53741	1434.06799	-290.52893	-285.24368	1303.33362	-256.15271				-155.42856	1272.77734	-229.15526	-608.48328	1207.63501	-198.33604	-1.32645	1229.28455	-360.00876	-605.97583	1132.06604	37.65355	-110.35052	935.52179	-264.38547	-396.85895	921.10474	-235.67888	-236.43369	977.42871	-507.81964	-94.93774	499.34366	-275.38058	-428.40240	487.74240	-258.82745	-192.77548	82.95396	-314.37994	-402.84186	208.58427	-552.53613	
569	5.680	-327.30466	1522.86926	-436.89157	-454.63864	1529.74329	-163.83150							-98.89487	1516.58179	-332.16507	-492.69666	1433.91138	-285.55704	-285.33511	1302.98767	-250.18024				-154.83601	1274.16064	-224.08748	-607.88831	1207.76270	-194.69284	0.17940	1230.91113	-356.90482	-605.41583	1131.76880	41.59154	-109.28812	936.41833	-259.18741	-396.56754	920.50208	-235.07840	-236.30089	977.32520	-504.06650	-92.83083	499.02435	-272.70428	-425.35300	490.34009	-242.94194	-192.30516	83.14986	-314.81824	-404.59784	213.84645	-540.68982	
570	5.690	-326.56253	1523.46545	-432.81613	-454.01538	1529.99890	-159.52635							-98.22912	1516.91907	-327.01422	-492.16083	1434.12402	-282.25003	-284.29910	1303.70251	-245.91733				-154.95740	1274.29504	-219.36140	-607.00391	1207.86938	-191.92021	-0.50993	1228.62244	-360.09079	-605.61365	1131.47205	44.79587	-108.98100	936.29346	-254.39180	-397.02335	922.19153	-224.24614	-236.15286	977.36322	-499.94171	-88.62496	499.57544	-269.77997	-422.98538	493.54443	-227.80287	-192.05125	82.99883	-315.04565	-405.65106	218.70677	-528.99902	
571	5.700	-325.71649	1523.69482	-428.62039	-453.73569	1530.83044	-156.04100							-98.29118	1516.98389	-322.25491	-491.18622	1434.78003	-277.90121	-283.21527	1304.63171	-241.49239				-154.48854	1274.69849	-214.09387	-607.33319	1208.24487	-188.94688	2.20374	1231.05225	-345.28680	-606.24927	1132.17700	47.59114	-108.07018	936.71790	-250.21931	-397.04294	922.39301	-217.31885	-236.23907	977.11584	-495.60568	-86.39224	499.93253	-266.97833	-421.53848	497.53403	-212.49097	-191.67296	83.04175	-315.53018	-407.03250	222.07661	-516.01721	
572	5.710	-324.95410	1524.23474	-424.59390	-451.88605	1530.77222	-152.18071							-97.16197	1517.77454	-317.99911	-491.45306	1434.79016	-274.31653	-282.61285	1304.36890	-238.06256				-153.77641	1275.12402	-209.77222	-606.62677	1208.35657	-185.53868	2.69480	1231.96875	-341.07327	-606.34277	1130.99194	50.31572	-106.61932	937.34784	-246.22694	-396.47189	923.00470	-211.39220	-237.07849	978.30365	-492.45551	-82.04178	500.92947	-263.83905	-419.26791	500.29080	-197.62115	-191.40257	83.05999	-315.88232	-408.29791	224.98703	-502.15613	
573	5.720	-324.10284	1524.33899	-419.95126	-451.43848	1530.98694	-148.11681							-96.62081	1518.16431	-313.91251	-490.65292	1435.36206	-270.95493	-281.57428	1303.57019	-235.15346				-154.73174	1275.61292	-205.34445	-606.74042	1208.38123	-182.68739	1.89278	1231.08875	-335.09109	-606.73535	1132.29553	53.86348	-106.15977	937.26190	-241.81712	-395.90918	924.02728	-206.14272	-236.99219	978.20813	-488.50302	-79.72588	500.53189	-259.98264	-416.89230	503.90649	-183.54907	-191.03174	82.85906	-315.42511	-408.75647	228.10863	-489.75714	
574	5.730	-323.36584	1525.08655	-415.70502	-451.02740	1531.43982	-144.21155							-96.09367	1518.70032	-309.07071	-489.69135	1436.08533	-267.13947	-280.88736	1304.45630	-229.52078				-154.79251	1276.45715	-200.93217	-606.25232	1208.82068	-179.36935	2.34243	1233.09595	-329.64624	-607.98645	1131.15942	56.40435	-105.48763	937.89148	-238.17822	-396.20596	924.34058	-200.06270	-236.79501	978.38495	-484.18967	-76.37277	501.74719	-255.61205	-415.08017	508.82550	-169.70403	-190.69583	82.70718	-315.57635	-409.52646	229.89949	-475.30560	
575	5.740	-322.08789	1525.07727	-411.31290	-451.96777	1531.05286	-139.65892							-95.63596	1519.12817	-305.26801	-488.99399	1435.99036	-263.38885	-280.50430	1306.63550	-227.43596				-154.68654	1277.43726	-196.52618	-606.42767	1208.85754	-175.77872	2.81689	1233.07239	-324.18103	-607.94629	1131.45325	60.21874	-105.11804	938.22943	-233.83775	-395.44473	924.87085	-195.85422	-236.54074	978.78064	-481.07239	-74.83761	502.13086	-250.88908	-412.28857	512.06079	-156.18536	-190.79712	82.68674	-315.57440	-410.31784	231.27931	-461.29193	
576	5.750	-321.79919	1525.29944	-407.66528	-451.66946	1531.90796	-135.95480							-95.05909	1519.65076	-301.17712	-489.66263	1436.43799	-259.19305	-280.70749	1306.26465	-225.56328				-154.81636	1277.65137	-193.34145	-606.44495	1209.21228	-172.14633	2.79001	1232.78967	-320.48611	-609.42200	1131.92810	62.66652	-104.33515	938.41168	-229.11052	-395.25528	925.58740	-191.14484	-236.88553	979.46265	-477.31659	-72.93941	503.04596	-245.63649	-409.48227	516.63763	-143.27258	-190.71799	82.64212	-315.24503	-410.48993	231.89748	-446.86890	
577	5.760	-321.13312	1525.88464	-403.42706	-451.42972	1531.71973	-132.13678							-94.17139	1519.77185	-297.05780	-490.44006	1436.43433	-256.03232	-279.58719	1306.81665	-220.46397				-152.87747	1278.86072	-188.06642	-606.48157	1209.55920	-169.35826	4.27457	1231.61816	-317.27176	-609.62531	1132.06055	66.15218	-103.99365	938.39642	-225.30237	-394.47076	925.69373	-185.87167	-236.87889	979.43317	-474.29318	-71.93343	503.99271	-241.33104	-408.31903	522.19623	-130.39600	-190.47447	82.88779	-314.78299	-410.77155	232.82692	-432.18188	
578	5.770	-320.57611	1526.01208	-399.76746	-450.81766	1532.25317	-127.68788							-93.68613	1519.85730	-292.88065	-489.33185	1437.22217	-251.36305	-277.99341	1305.43250	-212.90915				-154.56009	1278.61902	-187.23398	-606.73834	1209.75244	-165.95854	3.99710	1233.33374	-310.65634	-609.13196	1132.52356	70.04391	-103.65291	938.89807	-220.89607	-393.89316	926.77142	-180.33060	-236.56758	979.68909	-469.97955	-71.70724	503.91849	-235.29401	-404.54703	525.96118	-118.33025	-190.67870	82.93763	-314.96741	-410.92480	232.46898	-417.50784	
579	5.780	-319.91895	1526.73267	-395.35275	-450.05878	1532.10791	-123.65058							-93.08171	1519.93701	-288.67386	-488.12836	1436.96814	-247.27126	-277.53040	1305.97949	-208.50169				-152.36911	1279.70178	-179.09895	-607.14160	1210.29297	-162.99692	5.88212	1233.33936	-306.78943	-611.11407	1133.42285	72.49172	-103.73293	939.01379	-217.16664	-392.74799	927.05255	-176.24261	-236.54315	979.46649	-465.94485	-71.19251	503.89182	-229.88368	-399.88763	529.18903	-107.38477	-190.62325	83.19920	-314.07968	-411.00748	230.83176	-402.67902	
580	5.790	-319.38327	1526.60913	-391.24292	-448.90152	1532.56726	-120.44910							-92.60247	1520.24500	-283.93192	-487.48352	1437.29797	-243.73578	-277.36243	1306.52808	-204.82957				-153.34605	1279.01550	-177.25662	-607.64539	1210.73792	-159.25185	4.93288	1233.90198	-305.63699	-611.74591	1133.84045	75.95359	-103.58070	939.23230	-213.19373	-392.41116	927.69269	-170.98259	-236.90775	980.03101	-462.80792	-71.18866	504.45346	-225.15852	-398.03265	533.49811	-96.66769	-191.14998	83.23293	-314.53574	-410.68015	229.31647	-386.18140	
581	5.800	-318.91608	1527.20923	-387.46381	-448.47107	1532.98267	-115.92879							-91.99147	1520.61145	-279.95157	-487.31573	1437.74524	-239.59850	-277.37772	1307.18799	-199.41794				-151.14430	1279.89832	-170.30276	-608.15723	1210.85876	-155.92928	3.86665	1232.89417	-302.67633	-611.68915	1134.18018	80.33837	-102.85986	939.11688	-209.37027	-391.53809	927.70215	-166.67946	-237.41907	980.02094	-459.03619	-71.90232	504.15128	-220.89178	-395.04422	537.31732	-86.24014	-191.42516	83.40034	-314.31741	-410.54465	227.40654	-371.39572	
582	5.810	-318.29022	1527.00916	-383.26932	-449.79791	1532.84436	-112.00995							-91.79803	1520.28186	-275.84467	-486.30420	1438.43872	-235.16536	-277.11511	1307.71826	-194.53320				-152.46690	1279.15771	-168.51282	-607.96729	1211.30225	-152.06187	5.59971	1233.29651	-291.81253	-612.17657	1135.15198	84.42250	-101.96409	939.85760	-205.15863	-391.15930	927.81476	-162.58420	-237.77390	980.40485	-455.01575	-73.18631	504.33118	-217.20738	-391.82669	540.61639	-74.33595	-192.06129	83.70267	-314.36642	-409.88657	224.66582	-355.68631	
